<svg width="20" height="20" viewBox="0 0 20 20" fill="none" xmlns="http://www.w3.org/2000/svg">
<circle cx="10" cy="10" r="10" fill="#B00EC4"/>
<path d="M13.2096 13.7507C12.6084 13.7507 12.1263 14.2327 12.1263 14.834C12.1263 15.1213 12.2404 15.3969 12.4436 15.6C12.6468 15.8032 12.9223 15.9173 13.2096 15.9173C13.497 15.9173 13.7725 15.8032 13.9757 15.6C14.1788 15.3969 14.293 15.1213 14.293 14.834C14.293 14.5467 14.1788 14.2711 13.9757 14.068C13.7725 13.8648 13.497 13.7507 13.2096 13.7507ZM4.54297 5.08398V6.16732H5.6263L7.5763 10.2786L6.83964 11.6057C6.75839 11.7573 6.70964 11.9361 6.70964 12.1257C6.70964 12.413 6.82377 12.6885 7.02694 12.8917C7.2301 13.0948 7.50565 13.209 7.79297 13.209H14.293V12.1257H8.02047C7.98455 12.1257 7.95011 12.1114 7.92471 12.086C7.89932 12.0606 7.88505 12.0261 7.88505 11.9902C7.88505 11.9632 7.89047 11.9415 7.9013 11.9252L8.3888 11.0423H12.4242C12.8305 11.0423 13.188 10.8148 13.3721 10.4844L15.3113 6.97982C15.3492 6.89315 15.3763 6.80107 15.3763 6.70898C15.3763 6.56533 15.3192 6.42755 15.2177 6.32597C15.1161 6.22439 14.9783 6.16732 14.8346 6.16732H6.82339L6.31422 5.08398M7.79297 13.7507C7.19172 13.7507 6.70964 14.2327 6.70964 14.834C6.70964 15.1213 6.82377 15.3969 7.02694 15.6C7.2301 15.8032 7.50565 15.9173 7.79297 15.9173C8.08029 15.9173 8.35584 15.8032 8.559 15.6C8.76217 15.3969 8.8763 15.1213 8.8763 14.834C8.8763 14.5467 8.76217 14.2711 8.559 14.068C8.35584 13.8648 8.08029 13.7507 7.79297 13.7507Z" fill="white"/>
</svg>
