<svg width="26" height="20" viewBox="0 0 26 20" fill="none" xmlns="http://www.w3.org/2000/svg">
<path d="M8.9402 12.1536C7.72687 12.1536 6.73753 11.0511 6.73753 9.70245C6.73753 8.35261 7.70237 7.25011 8.94137 7.25011C10.1664 7.25011 11.1697 8.35261 11.1452 9.70245C11.1452 11.0511 10.1664 12.1536 8.9402 12.1536ZM17.0765 12.1524C15.8632 12.1524 14.8715 11.0499 14.8715 9.70128C14.8715 8.35145 15.8387 7.24894 17.0765 7.24894C18.3015 7.24894 19.3049 8.35145 19.2815 9.70128C19.2815 11.0499 18.3144 12.1524 17.0765 12.1524ZM10.8127 1.04111L10.4534 0.384277L9.7137 0.507944C8.03741 0.78746 6.40598 1.28968 4.8627 2.00128L4.5967 2.12378L4.43103 2.36878C1.38253 6.86394 0.546033 11.2914 0.9602 15.6396L1.0057 16.1144L1.3907 16.3944C3.1841 17.7103 5.18712 18.7134 7.31503 19.3613L8.2367 19.6436L9.5352 16.4749C11.7635 17.0256 14.2369 17.0256 16.464 16.4749L17.7555 19.6448L18.6772 19.3624C20.8068 18.716 22.811 17.7119 24.6039 16.3933L24.9854 16.1156L25.032 15.6466C25.5407 10.6066 24.2189 6.21644 21.581 2.36528L21.4154 2.12261L21.1494 2.00128C19.6065 1.29292 17.977 0.790823 16.303 0.507944L15.582 0.387777L15.2157 1.02011C15.113 1.19511 15.0092 1.39344 14.9089 1.59528C13.6433 1.46454 12.3676 1.46454 11.102 1.59528C11.0029 1.39694 10.9037 1.20561 10.8127 1.04111ZM6.83437 15.3783C7.0642 15.5113 7.30687 15.6419 7.54603 15.7609L7.0222 17.0396C5.60538 16.5232 4.26115 15.826 3.02287 14.9653C2.76037 11.3043 3.5047 7.60944 6.0142 3.80028C7.07325 3.33386 8.17721 2.97695 9.30887 2.73511C9.37887 2.88094 9.4442 3.02444 9.49787 3.15044L9.81637 3.90061L10.6237 3.78278C12.2058 3.551 13.8133 3.551 15.3954 3.78278L16.2004 3.89944L16.5177 3.15044C16.5725 3.01978 16.6367 2.87744 16.7044 2.73511C17.8442 2.98011 18.9479 3.34178 20.0037 3.80261C22.1912 7.09261 23.2949 10.7629 22.974 14.9641C21.7359 15.8267 20.3907 16.5244 18.9724 17.0396L18.4532 15.7621C18.6935 15.6431 18.9362 15.5124 19.1684 15.3783C19.74 15.0493 20.3549 14.6386 20.7469 14.2466L19.2535 12.7533C19.0634 12.9446 18.6434 13.2433 18.1137 13.5489C17.5957 13.8476 17.0812 14.0891 16.7522 14.1976C14.4154 14.9711 11.5862 14.9711 9.2482 14.1976C8.92037 14.0891 8.40587 13.8476 7.88787 13.5489C7.3582 13.2444 6.9382 12.9446 6.74687 12.7533L5.25353 14.2466C5.6467 14.6386 6.2627 15.0493 6.83437 15.3783Z" fill="#B00EC4"/>
</svg>
