<svg width="21" height="21" viewBox="0 0 21 21" fill="none" xmlns="http://www.w3.org/2000/svg">
<path d="M15.501 5.46582C15.4015 5.46582 15.3061 5.42631 15.2358 5.35599C15.1655 5.28566 15.126 5.19028 15.126 5.09082C15.126 4.99136 15.1655 4.89598 15.2358 4.82566C15.3061 4.75533 15.4015 4.71582 15.501 4.71582M15.501 5.46582C15.6004 5.46582 15.6958 5.42631 15.7661 5.35599C15.8365 5.28566 15.876 5.19028 15.876 5.09082C15.876 4.99136 15.8365 4.89598 15.7661 4.82566C15.6958 4.75533 15.6004 4.71582 15.501 4.71582" stroke="#B00EC4" stroke-width="1.5" stroke-linecap="round" stroke-linejoin="round"/>
<path d="M1.28861 5.14612C1.28861 4.12252 1.69523 3.14084 2.41903 2.41704C3.14283 1.69325 4.12451 1.28662 5.14811 1.28662H15.4411C15.9479 1.28662 16.4498 1.38645 16.9181 1.58041C17.3863 1.77437 17.8118 2.05865 18.1702 2.41704C18.5286 2.77543 18.8129 3.2009 19.0068 3.66915C19.2008 4.13741 19.3006 4.63928 19.3006 5.14612V15.4391C19.3006 16.4627 18.894 17.4444 18.1702 18.1682C17.4464 18.892 16.4647 19.2986 15.4411 19.2986H5.14661C4.12301 19.2986 3.14133 18.892 2.41753 18.1682C1.69373 17.4444 1.28711 16.4627 1.28711 15.4391V5.14462L1.28861 5.14612Z" stroke="#B00EC4" stroke-width="1.5" stroke-linecap="round" stroke-linejoin="round"/>
<path d="M6 9.825C6 10.3273 6.09894 10.8247 6.29116 11.2888C6.48339 11.7528 6.76513 12.1745 7.12032 12.5297C7.4755 12.8849 7.89717 13.1666 8.36124 13.3588C8.82531 13.5511 9.32269 13.65 9.825 13.65C10.3273 13.65 10.8247 13.5511 11.2888 13.3588C11.7528 13.1666 12.1745 12.8849 12.5297 12.5297C12.8849 12.1745 13.1666 11.7528 13.3588 11.2888C13.5511 10.8247 13.65 10.3273 13.65 9.825C13.65 8.81055 13.247 7.83764 12.5297 7.12032C11.8124 6.40299 10.8395 6 9.825 6C8.81055 6 7.83764 6.40299 7.12032 7.12032C6.40299 7.83764 6 8.81055 6 9.825Z" stroke="#B00EC4" stroke-width="1.5" stroke-linecap="round" stroke-linejoin="round"/>
</svg>
